Coordinates
version=1
nRows=12
nColumns=34
inDegrees=yes

Units are S.I. units (second, meters, Newtons, ...)
If the header above contains a line with 'inDegrees', this indicates whether rotational values are in degrees (yes) or radians (no).

endheader
time	pelvis_tilt	pelvis_list	pelvis_rotation	pelvis_tx	pelvis_ty	pelvis_tz	hip_flexion_r	hip_adduction_r	hip_rotation_r	knee_angle_r	ankle_angle_r	subtalar_angle_r	mtp_angle_r	hip_flexion_l	hip_adduction_l	hip_rotation_l	knee_angle_l	ankle_angle_l	subtalar_angle_l	mtp_angle_l	lumbar_extension	lumbar_bending	lumbar_rotation	arm_flex_r	arm_add_r	arm_rot_r	elbow_flex_r	pro_sup_r	arm_flex_l	arm_add_l	arm_rot_l	elbow_flex_l	pro_sup_l
      1.03333330	     -3.23347596	      2.30600992	     -1.05176655	      1.84088507	      0.88334656	     -0.17687972	     -2.37731988	     -6.19899912	      2.01715258	      0.00000000	      1.67099937	    -22.76335550	      0.00000000	     -2.08392420	     -1.42006769	     -3.39329645	      0.00000000	      3.65557329	     -4.38339307	      0.00000000	     -6.40984225	     -0.42779413	     -0.63761128	      9.88722230	     -9.78066651	     38.20310732	     99.91276943	     91.70924740	      7.66244410	     -8.49913068	     35.67756173	     91.16444627	     87.88120841
      1.05000000	     -3.25891345	      2.30454300	     -1.01173400	      1.83999794	      0.88259394	     -0.17714008	     -2.30798203	     -6.23621960	      2.02858899	      0.00000000	      1.65387125	    -22.76382183	      0.00000000	     -2.00112189	     -1.37707695	     -3.30542553	      0.00000000	      3.74157607	     -4.40355711	      0.00000000	     -6.54298903	     -0.37416711	     -0.79039518	      9.80353792	     -9.64406709	     38.31290920	     99.89282236	     91.67492848	      7.94689910	     -8.27002613	     35.62058733	     91.13086378	     87.82844667
      1.06666670	     -3.26779411	      2.29737431	     -0.99293003	      1.83920285	      0.88159947	     -0.17746550	     -2.25370917	     -6.24993433	      1.98622193	      0.00000000	      1.66593431	    -22.80667898	      0.00000000	     -1.94757232	     -1.35963991	     -3.19979113	      0.00000000	      3.79692685	     -4.42548060	      0.00000000	     -6.62487242	     -0.36250753	     -0.77643934	      9.82006753	     -9.69294900	     38.32258248	     99.78271729	     91.62954492	      8.34278644	     -8.37290069	     35.31871943	     90.98236781	     87.75686979
      1.08333330	     -3.09187461	      2.33725743	     -1.01356471	      1.83870570	      0.88077284	     -0.17822867	     -2.40623034	     -6.32944589	      1.93922856	      0.00000000	      1.60957596	    -22.95297672	      0.00000000	     -2.11359377	     -1.27605166	     -2.99680388	      0.00000000	      3.71785131	     -4.62276459	      0.00000000	     -6.75421342	     -0.43708316	     -0.59320417	      9.89309328	     -9.77664424	     38.02388398	     99.04057796	     91.37241685	      8.74469048	     -8.01204954	     34.19208320	     90.05181971	     87.40939763
      1.10000000	     -3.16345074	      2.34252504	     -0.99839960	      1.83839834	      0.87986145	     -0.17916093	     -2.29092958	     -6.35580419	      1.92105239	      0.00000000	      1.62953802	    -22.98003197	      0.00000000	     -1.98699742	     -1.24281701	     -3.00631633	      0.00000000	      3.73066178	     -4.65207299	      0.00000000	     -6.93569842	     -0.36499077	     -0.51655817	      9.91813402	     -9.89221538	     37.93440564	     98.88835546	     91.34566420	      8.93342882	     -8.23163528	     33.93185341	     89.95331651	     87.37211789
      1.11666670	     -3.21416057	      2.36189633	     -0.93977409	      1.83800022	      0.87938750	     -0.18017477	     -2.20745381	     -6.40771053	      1.91644504	      0.00000000	      1.65537776	    -23.01481097	      0.00000000	     -1.86782472	     -1.17887626	     -3.00771546	      0.00000000	      3.75754794	     -4.69880294	      0.00000000	     -7.18892498	     -0.32557878	     -0.37628988	      9.91317650	    -10.02180353	     37.80937602	     98.52671650	     91.31493866	      8.96396032	     -8.27278524	     33.69341139	     89.77409407	     87.33308654
      1.13333330	     -3.12005844	      2.38536365	     -1.02787794	      1.83777406	      0.87934293	     -0.18065839	     -2.26408561	     -6.48355873	      2.11651519	      0.00000000	      1.64181884	    -23.19744669	      0.00000000	     -1.96417065	     -1.08384204	     -2.97279720	      0.00000000	      3.65078210	     -5.08876301	      0.00000000	     -6.75770580	     -0.37248011	     -0.39187455	      9.98330185	     -9.24687021	     36.67073061	     94.61195039	     90.89950408	      8.62193978	     -7.31541933	     32.16743970	     87.30010239	     86.90928204
      1.15000000	     -3.23461649	      2.39738160	     -1.03965067	      1.83726968	      0.87909036	     -0.17987799	     -2.09587236	     -6.51523148	      2.21977686	      0.00000000	      1.65020121	    -23.25911942	      0.00000000	     -1.80223702	     -1.03209435	     -2.97653013	      0.00000000	      3.64096389	     -5.24947558	      0.00000000	     -6.64193931	     -0.41977956	     -0.32390410	     10.01671763	     -8.88211635	     36.33413301	     91.43779589	     90.57645032	      8.31852734	     -7.05045747	     31.69180957	     85.60595468	     86.68099382
      1.16666670	     -3.15380608	      2.37156668	     -1.05748551	      1.83613647	      0.87947179	     -0.17798164	     -2.13771257	     -6.49131420	      2.21900765	      0.00000000	      1.67046209	    -23.36338157	      0.00000000	     -1.86496700	     -1.03615052	     -2.98677167	      0.00000000	      3.72788752	     -5.36332530	      0.00000000	     -6.84571075	     -0.43309332	      0.03522430	      9.92453454	     -8.64722589	     35.87154863	     87.64137417	     90.33418002	      8.17832126	     -6.79017602	     31.07322835	     83.66549286	     86.57792042
      1.18333330	     -3.45992768	      2.37688308	     -0.99594815	      1.83451266	      0.87918314	     -0.17570538	     -1.76509216	     -6.43208559	      2.21840264	      0.00000000	      1.66844049	    -23.46699478	      0.00000000	     -1.49155483	     -1.08665199	     -3.00946646	      0.00000000	      3.74335220	     -5.24049246	      0.00000000	     -6.42308431	     -0.50306550	     -0.17004776	     10.19445303	     -7.88598930	     35.55155502	     82.91681299	     89.93819472	      7.91921273	     -7.02758007	     30.14219943	     80.47098209	     86.59984709
      1.20000000	     -3.61135073	      2.30039829	     -1.02162760	      1.83260618	      0.87732879	     -0.17410120	     -1.51686776	     -6.25815621	      2.26741729	      0.00000000	      1.70788320	    -23.63244961	      0.00000000	     -1.28800245	     -1.25763291	     -3.03613319	      0.00000000	      3.88045094	     -5.20031254	      0.00000000	     -6.32356728	     -0.51083176	      0.08705957	     10.71223321	     -7.20488410	     35.50576143	     77.72029004	     89.46294224	      7.77614785	     -7.01562271	     29.07391505	     77.63276464	     86.92836047
      1.21666670	     -3.53303037	      2.27917494	     -1.07818254	      1.83112550	      0.87664190	     -0.17318264	     -1.50311753	     -6.14084633	      2.43220631	      0.00000000	      1.82969595	    -23.71063291	      0.00000000	     -1.31200375	     -1.37238724	     -3.15159523	      0.00000000	      3.88288297	     -5.16810869	      0.00000000	     -6.70549918	     -0.63766760	      0.38150480	     11.37015244	     -6.33521821	     35.00072368	     72.59824850	     89.12189519	      7.93249374	     -7.06904862	     28.20138964	     74.85125754	     87.29316606
